# Blender v2.93.1 OBJ File: 'untitled.blend'
# www.blender.org
mtllib jordanKocka.mtl
o Cube
v 1.000000 1.000000 -1.000000
v 1.000000 -1.000000 -1.000000
v 1.000000 1.000000 1.000000
v 1.000000 -1.000000 1.000000
v -1.000000 1.000000 -1.000000
v -1.000000 -1.000000 -1.000000
v -1.000000 1.000000 1.000000
v -1.000000 -1.000000 1.000000
vt 0.283897 0.783026
vt 0.292138 0.221080
vt 0.714887 0.221080
vt 0.706645 0.783026
vt 0.714769 0.780076
vt 0.287027 0.778153
vt 0.285654 0.218275
vt 0.713396 0.220198
vt 0.705934 0.794081
vt 0.294000 0.794081
vt 0.298121 0.232964
vt 0.710055 0.232964
vt 0.706805 0.207420
vt 0.705074 0.786857
vt 0.297885 0.786857
vt 0.299616 0.207420
vt 0.702305 0.807282
vt 0.305592 0.807282
vt 0.309054 0.210557
vt 0.705766 0.210557
vt 0.712241 0.779493
vt 0.297883 0.784339
vt 0.294421 0.239891
vt 0.708779 0.235045
vn 0.0000 1.0000 0.0000
vn 0.0000 0.0000 1.0000
vn -1.0000 0.0000 0.0000
vn 0.0000 -1.0000 0.0000
vn 1.0000 0.0000 0.0000
vn 0.0000 0.0000 -1.0000
usemtl Material
s off
f 1/1/1 5/2/1 7/3/1 3/4/1
f 4/5/2 3/6/2 7/7/2 8/8/2
f 8/9/3 7/10/3 5/11/3 6/12/3
f 6/13/4 2/14/4 4/15/4 8/16/4
f 2/17/5 1/18/5 3/19/5 4/20/5
f 6/21/6 5/22/6 1/23/6 2/24/6
